# xmcd
#
# Track frame offsets:
#	150
#	14752
#	24351
#	36647
#	46988
#	60677
#	73028
#	83820
#	96800
#	108542
#
# Disc length: 1617 seconds
#
# Revision: 0
# Processed by: cddbd v1.5.2PL0 Copyright (c) Steve Scherf et al.
# Submitted via: SynApp - FreeCDDB Version: 2.5
#
DISCID=87064f0a
DTITLE=StraitGeorge  - Right Or Wrong
DYEAR=1232
DGENRE=A capella
TTITLE0=George Strait - You Look So Good In Love
TTITLE1=George Strait - Right Or Wrong
TTITLE2=George Strait - A Little Heaven's Rubbing Off
TTITLE3=George Strait - 80 Proof Bottle of Tear Stoppe
TTITLE4=George Strait - Every Time It Rains (Lord Don'
TTITLE5=George Strait - You're the Cloud I'm On (When
TTITLE6=George Strait - Let's Fall To Pieces Together
TTITLE7=George Strait - I'm Satisfied with You
TTITLE8=George Strait - Our Paths May Never Cross
TTITLE9=George Strait - Fifteen Years Going Up (And On
EXTD=
EXTT0=
EXTT1=
EXTT2=
EXTT3=
EXTT4=
EXTT5=
EXTT6=
EXTT7=
EXTT8=
EXTT9=
PLAYORDER=
